<?xml version="1.0" standalone="no"?>
<!DOCTYPE svg PUBLIC "-//W3C//DTD SVG 20010904//EN"
 "http://www.w3.org/TR/2001/REC-SVG-20010904/DTD/svg10.dtd">
<svg version="1.0" xmlns="http://www.w3.org/2000/svg"
 width="1280.000000pt" height="1280.000000pt" viewBox="0 0 1280.000000 1280.000000"
 preserveAspectRatio="xMidYMid meet">
<g transform="translate(0.000000,1280.000000) scale(0.100000,-0.100000)"
fill="#000000" stroke="none">
<path d="M0 6400 l0 -6400 6400 0 6400 0 0 6400 0 6400 -6400 0 -6400 0 0
-6400z m6935 5185 c474 -39 883 -124 1320 -275 1037 -357 1950 -1043 2590
-1945 984 -1386 1239 -3164 688 -4780 -320 -938 -903 -1768 -1693 -2411 -467
-380 -1084 -715 -1665 -904 -553 -179 -1065 -260 -1653 -260 -828 0 -1592 175
-2327 535 -856 420 -1574 1052 -2098 1847 -935 1419 -1132 3207 -527 4798 351
923 962 1738 1752 2335 807 611 1756 974 2768 1060 214 18 627 18 845 0z"/>
<path d="M6155 11514 c-1016 -76 -1965 -432 -2775 -1041 -1095 -822 -1834
-2070 -2024 -3414 -43 -304 -50 -420 -50 -754 0 -335 8 -459 50 -755 107 -756
395 -1506 824 -2146 240 -358 558 -723 875 -1003 1522 -1347 3667 -1693 5533
-892 1536 659 2675 2038 3033 3671 131 598 155 1252 69 1865 -135 957 -538
1859 -1169 2615 -128 154 -414 444 -572 581 -801 696 -1752 1117 -2824 1250
-140 17 -236 22 -545 24 -206 1 -397 1 -425 -1z m701 -139 c150 -26 243 -84
291 -183 25 -52 28 -66 27 -167 0 -136 -21 -199 -91 -268 -77 -78 -219 -116
-383 -103 -266 21 -398 123 -416 322 -8 88 15 200 53 260 36 58 126 119 196
133 28 6 61 13 72 15 48 9 169 5 251 -9z m-895 -72 c66 -29 114 -76 148 -144
106 -212 37 -441 -154 -514 -23 -9 -166 -38 -316 -64 l-274 -47 -12 55 c-17
78 -113 644 -110 647 1 1 112 21 247 44 135 23 247 44 250 47 13 13 178 -5
221 -24z m2142 -152 c91 -38 107 -48 111 -70 3 -14 17 -114 31 -221 15 -107
32 -226 38 -263 l12 -68 230 171 c163 121 236 170 250 167 53 -12 210 -86 208
-98 -1 -12 -261 -639 -268 -647 -3 -4 -148 58 -159 68 -5 5 30 100 78 216 48
114 85 211 84 215 -2 5 -94 -59 -206 -141 -111 -82 -212 -155 -224 -161 -29
-15 -135 26 -141 56 -3 11 -22 136 -43 278 -21 141 -41 254 -44 250 -4 -5 -46
-103 -94 -220 l-88 -212 -49 19 c-94 37 -119 49 -119 56 0 3 57 142 126 308
70 165 130 311 135 324 5 13 13 22 17 20 5 -2 56 -23 115 -47z m-3606 -292
c39 -19 83 -64 83 -86 0 -5 -35 -27 -77 -50 -77 -40 -78 -40 -97 -20 -15 15
-28 18 -66 15 -80 -8 -319 -137 -355 -191 -13 -20 -14 -29 -4 -51 22 -47 60
-39 249 46 197 90 266 115 328 124 91 12 151 -25 192 -120 53 -119 -17 -223
-240 -354 -199 -117 -358 -168 -450 -142 -43 12 -130 84 -130 108 0 6 34 29
76 52 l77 41 23 -22 c39 -36 109 -24 246 45 127 64 205 118 227 158 13 23 13
28 -3 53 -16 24 -23 27 -60 23 -22 -3 -108 -37 -191 -75 -193 -90 -274 -117
-352 -117 -52 0 -67 5 -98 28 -68 52 -95 123 -75 198 23 82 188 214 375 299
137 62 246 75 322 38z m4864 -362 c36 -12 91 -38 124 -57 89 -53 216 -178 256
-252 30 -56 34 -72 34 -138 0 -65 -4 -85 -34 -143 -37 -77 -126 -174 -183
-200 -94 -44 -194 -40 -306 13 -139 65 -281 194 -331 300 -21 44 -26 70 -26
130 1 67 5 82 39 148 46 86 143 182 208 205 62 22 142 20 219 -6z m-2351 -61
c293 -37 562 -95 815 -177 1576 -505 2724 -1882 2934 -3519 109 -845 -33
-1694 -409 -2447 -217 -437 -459 -772 -805 -1119 -350 -351 -664 -579 -1100
-800 -835 -422 -1773 -557 -2700 -388 -1374 250 -2555 1180 -3128 2464 -324
727 -438 1543 -326 2340 212 1514 1234 2809 2659 3373 406 160 787 248 1270
291 110 10 670 -3 790 -18z m-3371 -327 c179 -73 343 -139 364 -147 20 -8 37
-18 37 -22 0 -5 -32 -36 -70 -70 l-70 -62 -80 32 c-72 29 -83 31 -98 18 -188
-160 -302 -261 -302 -271 0 -7 9 -44 19 -84 l19 -72 -77 -64 c-42 -36 -77 -64
-78 -63 -5 5 -183 770 -181 777 4 10 177 159 185 159 3 0 153 -59 332 -131z
m6611 -349 c189 -214 225 -258 246 -309 19 -44 18 -139 -1 -185 -24 -56 -89
-121 -147 -146 -49 -21 -103 -23 -192 -8 -16 2 -24 -11 -47 -87 -47 -154 -35
-148 -116 -56 l-71 80 34 106 35 106 -97 110 -96 109 -36 -30 c-21 -16 -53
-43 -73 -60 l-36 -30 -43 48 c-91 99 -109 63 132 274 117 103 236 207 263 232
28 25 55 44 62 43 6 -1 89 -90 183 -197z m-7253 -247 c130 -115 250 -220 267
-234 l31 -27 -59 -66 c-32 -37 -64 -65 -70 -63 -16 5 -525 451 -525 460 -1 8
109 137 116 137 2 0 110 -93 240 -207z m-301 -162 c101 -46 164 -136 164 -234
l0 -57 121 0 c140 0 135 8 59 -105 l-51 -75 -114 0 -115 0 -80 -120 -80 -120
79 -53 80 -53 -50 -75 c-27 -41 -54 -73 -59 -72 -22 6 -580 385 -580 394 0 17
322 492 354 522 71 67 186 87 272 48z m8199 -452 c152 -267 173 -320 161 -401
-14 -93 -100 -182 -201 -209 -53 -15 -138 -5 -180 20 -40 23 -35 28 -101 -96
-27 -51 -51 -93 -54 -93 -5 1 -96 157 -102 176 -2 5 21 53 50 106 l53 95 -70
122 c-38 67 -71 125 -74 128 -3 2 -41 -16 -84 -41 -89 -52 -82 -54 -137 46
l-37 67 43 24 c348 201 574 325 581 318 4 -4 73 -122 152 -262z m-8678 -417
l22 -7 -33 -85 -33 -85 -45 -1 c-82 -2 -139 -50 -188 -159 -78 -170 -58 -274
62 -334 75 -38 155 -42 205 -12 70 43 142 196 143 304 0 65 -9 88 -52 134
l-30 31 30 78 c17 43 35 80 41 82 19 6 98 -57 129 -103 59 -89 66 -207 22
-350 -39 -124 -89 -214 -161 -287 -55 -55 -75 -69 -124 -83 -152 -45 -367 41
-439 175 -60 111 -43 278 48 465 80 163 186 246 316 244 36 -1 75 -4 87 -7z
m8934 -333 c99 -43 196 -193 239 -369 49 -208 7 -358 -124 -435 -125 -73 -271
-89 -369 -41 -73 35 -130 101 -178 201 -52 110 -79 221 -79 322 0 159 68 257
219 314 117 44 203 46 292 8z m-9425 -1106 c-118 -844 -39 -1648 234 -2389
234 -636 563 -1172 1021 -1663 483 -519 1093 -935 1754 -1197 88 -34 161 -68
164 -75 5 -15 -11 -10 -184 58 -718 281 -1425 793 -1926 1395 -622 746 -995
1612 -1109 2574 -46 387 -35 955 25 1312 9 53 29 39 21 -15z m9608 30 c9 -32
35 -245 48 -393 15 -187 16 -564 0 -755 -97 -1160 -577 -2213 -1385 -3034
-301 -307 -608 -550 -968 -766 -140 -84 -388 -215 -408 -215 -29 0 -2 20 87
64 618 306 1206 792 1648 1361 552 710 887 1542 989 2456 40 356 25 965 -31
1264 -6 36 10 51 20 18z m-3119 -5180 c31 -93 59 -170 60 -172 2 -1 34 7 70
19 37 12 70 18 75 14 12 -13 53 -145 47 -150 -7 -7 -469 -165 -473 -162 -10
11 -53 153 -47 159 5 3 33 14 63 24 30 10 59 21 63 25 10 9 -33 150 -45 150
-5 0 -11 -7 -14 -15 -8 -20 -91 -68 -107 -62 -10 4 -57 127 -57 149 0 3 20 13
44 22 52 20 66 35 75 78 6 29 13 34 86 59 44 15 85 28 91 28 6 1 37 -74 69
-166z m-2710 0 c93 -21 189 -67 214 -102 33 -46 36 -99 9 -150 -30 -59 -72
-79 -174 -86 -99 -7 -148 -15 -141 -22 3 -2 65 -18 138 -34 74 -17 134 -31
135 -32 2 -1 -5 -38 -15 -82 -12 -55 -22 -80 -32 -79 -16 2 -347 74 -483 106
l-88 20 6 45 c16 122 74 159 268 173 67 5 132 10 144 10 11 0 29 6 40 14 17
13 17 16 4 29 -17 16 -94 37 -136 37 -15 0 -35 -7 -45 -16 -16 -15 -25 -14
-101 2 -111 23 -109 21 -93 67 40 118 144 147 350 100z m1960 -54 c58 -16 92
-53 106 -114 19 -87 -14 -130 -153 -195 -84 -39 -114 -60 -86 -60 7 0 69 9
138 20 68 11 125 18 127 17 6 -7 25 -158 20 -163 -3 -3 -135 -25 -293 -49
-205 -31 -290 -41 -295 -33 -4 6 -10 35 -14 63 -13 106 25 147 223 242 128 61
160 86 131 104 -34 20 -166 -13 -181 -46 -9 -19 -22 -25 -85 -34 -40 -6 -86
-11 -100 -11 -25 0 -26 1 -20 55 8 81 38 122 114 158 100 46 283 69 368 46z
m-950 -83 c97 -42 144 -120 145 -240 0 -100 -14 -146 -62 -200 -48 -55 -101
-77 -203 -83 -174 -11 -289 37 -340 144 -23 46 -26 188 -6 246 23 67 83 123
161 148 45 15 261 4 305 -15z"/>
<path d="M6587 11216 c-79 -29 -116 -92 -117 -194 0 -143 69 -201 250 -210
120 -5 172 8 221 56 46 47 65 131 48 210 -22 107 -86 144 -254 149 -77 2 -121
-1 -148 -11z"/>
<path d="M5600 11143 c-80 -14 -146 -26 -148 -28 -5 -4 60 -380 68 -388 8 -9
278 37 342 59 96 32 131 110 103 230 -18 78 -42 116 -89 138 -45 21 -101 19
-276 -11z"/>
<path d="M9209 10331 c-69 -38 -138 -140 -139 -205 -1 -103 173 -260 303 -273
48 -5 62 -2 101 21 53 31 101 95 118 159 17 67 -6 121 -87 195 -112 102 -225
141 -296 103z"/>
<path d="M6295 10380 c-574 -32 -1113 -173 -1631 -429 -1158 -570 -1995 -1653
-2254 -2914 -122 -599 -111 -1258 31 -1837 206 -836 652 -1577 1293 -2147 497
-443 1082 -757 1721 -923 380 -99 658 -134 1065 -134 496 0 887 63 1340 215
871 292 1627 870 2146 1639 387 573 616 1213 695 1940 17 150 17 630 1 790
-101 1001 -534 1911 -1239 2601 -590 578 -1309 960 -2118 1124 -310 63 -731
93 -1050 75z m611 -255 c204 -22 416 -66 585 -122 l144 -48 8 -135 c5 -74 6
-918 3 -1875 -3 -957 -6 -2546 -6 -3531 l0 -1792 -97 -40 c-175 -72 -344 -116
-584 -153 -189 -29 -593 -32 -793 -5 -245 32 -461 79 -678 147 l-128 40 0 302
c0 239 3 315 15 361 19 74 46 111 90 127 l35 13 0 336 c0 184 0 1431 2 2770
l2 2435 -22 80 c-26 93 -64 154 -109 175 l-33 15 0 371 0 372 83 22 c224 61
494 109 748 134 190 19 558 19 735 1z m-1705 -566 c-1 -217 -4 -757 -8 -1200
l-6 -807 -296 -6 c-163 -4 -321 -8 -351 -9 l-55 -2 3 165 c6 276 -23 555 -64
617 -30 46 -58 31 -132 -69 -204 -276 -384 -581 -506 -858 -75 -172 -101 -253
-130 -413 -53 -285 -60 -371 -60 -707 0 -293 2 -326 26 -475 98 -591 328
-1064 698 -1435 l105 -105 6 65 c4 36 12 222 19 413 7 191 16 349 19 351 6 3
210 -11 511 -34 75 -5 160 -10 189 -10 l54 0 -6 -862 c-7 -781 -21 -1505 -31
-1515 -7 -8 -166 61 -292 127 -563 293 -1025 738 -1386 1335 -322 533 -547
1192 -662 1945 -74 482 -45 877 96 1320 249 780 883 1581 1780 2248 170 127
468 326 476 318 1 -2 3 -181 3 -397z m2727 315 c157 -32 332 -136 497 -295
l102 -98 31 -113 c17 -62 60 -221 97 -353 36 -132 72 -262 80 -290 54 -205
228 -832 234 -842 3 -7 95 132 215 327 115 187 213 340 218 340 19 0 262 -248
302 -309 154 -233 449 -1143 496 -1531 13 -108 13 -393 0 -535 -30 -326 -115
-754 -200 -1015 -33 -98 -160 -417 -235 -584 -257 -581 -530 -977 -690 -1003
-29 -5 -36 -2 -44 18 -15 38 -31 333 -31 584 0 405 46 662 163 918 134 290
217 785 217 1281 0 299 -46 547 -105 570 -42 16 -78 -34 -195 -262 -89 -173
-106 -188 -143 -116 -19 36 -165 411 -209 534 -36 103 -75 177 -97 185 -38 15
-65 -62 -77 -224 -4 -50 -7 -968 -8 -2039 -1 -2186 7 -1976 -78 -2068 -49 -54
-187 -148 -298 -204 -88 -44 -300 -130 -322 -130 -13 0 -16 49 -21 343 -4 188
-12 536 -17 772 -32 1335 -32 1121 -1 2487 5 229 5 550 0 760 -26 1116 -28
1257 -19 1833 10 662 18 993 26 1043 6 37 8 38 112 16z"/>
<path d="M6450 9419 c-41 -5 -97 -15 -125 -22 -50 -12 -50 -12 -62 -67 -34
-154 -36 -396 -28 -3165 4 -1496 8 -2782 9 -2857 l1 -138 50 -9 c249 -49 416
-48 515 3 76 40 81 56 91 299 16 419 22 1862 10 2697 -33 2305 -39 2929 -29
2971 5 24 7 68 4 98 -10 107 -82 168 -223 190 -80 12 -105 12 -213 0z"/>
<path d="M3310 10041 c0 -10 58 -259 65 -279 3 -9 41 17 107 73 57 48 104 91
106 95 2 6 -257 120 -273 120 -3 0 -5 -4 -5 -9z"/>
<path d="M9995 9658 c-38 -34 -70 -67 -70 -74 0 -6 54 -74 120 -149 151 -174
174 -186 252 -128 38 28 52 78 31 116 -16 31 -246 297 -256 297 -4 0 -38 -28
-77 -62z"/>
<path d="M2528 9180 c-16 -10 -212 -294 -224 -324 -4 -10 21 -32 80 -72 48
-31 88 -55 90 -53 14 17 186 281 199 306 24 46 21 78 -11 114 -21 24 -38 32
-72 35 -25 3 -53 0 -62 -6z"/>
<path d="M10597 8879 c-84 -49 -87 -52 -74 -73 7 -11 51 -87 96 -167 92 -160
117 -186 176 -175 18 4 48 20 66 37 27 25 31 34 27 67 -5 36 -182 362 -196
362 -4 0 -47 -23 -95 -51z"/>
<path d="M10940 7974 c-62 -22 -109 -60 -127 -103 -37 -88 17 -293 97 -365 47
-42 96 -53 170 -38 108 23 170 91 170 188 0 52 -29 163 -57 219 -52 103 -141
137 -253 99z"/>
<path d="M6267 1590 c-54 -42 -42 -150 19 -176 57 -24 111 -18 145 15 24 25
29 37 29 78 -1 74 -33 103 -118 103 -34 0 -57 -6 -75 -20z"/>
</g>
</svg>
